<?xml version="1.0" encoding="iso-8859-1"?>
<!-- Generator: Adobe Illustrator 19.0.0, SVG Export Plug-In . SVG Version: 6.00 Build 0)  -->
<svg version="1.1" id="Layer_1" xmlns="http://www.w3.org/2000/svg" xmlns:xlink="http://www.w3.org/1999/xlink" x="0px" y="0px"
	 viewBox="0 0 480 480" style="enable-background:new 0 0 480 480;" xml:space="preserve">
<g>
	<g>
		<path d="M240,0C124.784,0,56,71.776,56,192c0,130.296,171.472,279.76,178.776,286.056c1.496,1.296,3.36,1.944,5.224,1.944
			s3.728-0.648,5.224-1.944C252.528,471.76,424,322.296,424,192C424,71.776,355.216,0,240,0z M240,461.272
			C211.048,434.952,72,302.728,72,192C72,81.792,134.808,16,240,16s168,65.792,168,176C408,302.728,268.952,434.952,240,461.272z"/>
	</g>
</g>
<g>
	<g>
		<path d="M240,40c-74.992,0-136,61.008-136,136s61.008,136,136,136s136-61.008,136-136S314.992,40,240,40z M240,296
			c-66.168,0-120-53.832-120-120S173.832,56,240,56s120,53.832,120,120S306.168,296,240,296z"/>
	</g>
</g>
<g>
	<g>
		<path d="M312,120h-40v-16c0-8.824-7.176-16-16-16h-32c-8.824,0-16,7.176-16,16v16h-40c-4.416,0-8,3.584-8,8v16v80
			c0,4.416,3.584,8,8,8h144c4.416,0,8-3.584,8-8v-80v-16C320,123.584,316.416,120,312,120z M224,104h32v16h-32V104z M304,216H176
			v-40.208c6.704,5.08,14.96,8.208,24,8.208h32v8h16v-8h32c9.04,0,17.296-3.128,24-8.208V216z M304,144c0,13.232-10.768,24-24,24
			h-80c-13.232,0-24-10.768-24-24v-8h40h48h40V144z"/>
	</g>
</g>
<g>
	<g>
		<rect x="200" y="248" width="16" height="16"/>
	</g>
</g>
<g>
	<g>
		<rect x="232" y="248" width="16" height="16"/>
	</g>
</g>
<g>
	<g>
		<rect x="264" y="248" width="16" height="16"/>
	</g>
</g>
<g>
	<g>
		<rect x="336" y="440" width="16" height="16"/>
	</g>
</g>
<g>
	<g>
		<rect x="368" y="440" width="16" height="16"/>
	</g>
</g>
<g>
	<g>
		<rect x="400" y="440" width="16" height="16"/>
	</g>
</g>
<g>
	<g>
		<rect x="64" y="440" width="16" height="16"/>
	</g>
</g>
<g>
	<g>
		<rect x="96" y="440" width="16" height="16"/>
	</g>
</g>
<g>
	<g>
		<rect x="128" y="440" width="16" height="16"/>
	</g>
</g>
<g>
</g>
<g>
</g>
<g>
</g>
<g>
</g>
<g>
</g>
<g>
</g>
<g>
</g>
<g>
</g>
<g>
</g>
<g>
</g>
<g>
</g>
<g>
</g>
<g>
</g>
<g>
</g>
<g>
</g>
</svg>
