<?xml version="1.0" encoding="iso-8859-1"?>
<!-- Generator: Adobe Illustrator 19.0.0, SVG Export Plug-In . SVG Version: 6.00 Build 0)  -->
<svg version="1.1" id="Layer_1" xmlns="http://www.w3.org/2000/svg" xmlns:xlink="http://www.w3.org/1999/xlink" x="0px" y="0px"
	 viewBox="0 0 488.002 488.002" style="enable-background:new 0 0 488.002 488.002;" xml:space="preserve">
<g>
	<g>
		<path d="M447.132,112.402c1.688-1.696,3.352-3.36,4.984-5.008l18.264,18.264l11.312-11.312l-18.288-18.288
			c10.712-10.76,18.312-18.416,18.312-18.416c3.104-3.128,3.096-8.176-0.016-11.296l-64-64c-3.128-3.128-8.184-3.128-11.312,0
			L388.044,20.69L369.7,2.346l-11.312,11.312l18.344,18.344l-4.976,4.976C333.5,12.858,289.532,0.002,244.044,0.002
			c-132.336,0-240,107.664-240,240c0,25.584,4.176,50.8,12.176,75.072c-21.176,43.128-14.888,96.424,18.576,133.368
			c22.336,24.664,52.904,38.696,86.072,39.512c1.016,0.032,2.04,0.048,3.064,0.048c21.248,0,41.544-5.576,59.48-15.888
			c19.84,5.176,40.208,7.888,60.632,7.888c132.336,0,240-107.664,240-240C484.044,194.554,471.212,150.626,447.132,112.402z
			 M467.78,232.01h-144.8c-2.064-6.648-4.84-13.112-8.368-19.248l57.432-57.448l10.344,10.344c0.744,0.744,1.632,1.336,2.6,1.744
			c5.064,2.08,5.064,2.104,24.488-17.272c0.848-0.848,1.8-1.8,2.696-2.688l18.224,18.224l11.312-11.312l-18.224-18.224
			c3.64-3.64,7.696-7.704,12.16-12.184C455.5,156.626,466.42,193.666,467.78,232.01z M305.292,199.442
			c-6.352-7.632-13.728-14.192-21.896-19.472l56.648-56.656l20.688,20.688L305.292,199.442z M378.596,52.762l33.448-33.448
			l52.704,52.704c-10.472,10.536-22.176,22.296-33.392,33.552c0,0,0,0-0.008,0c-24.936,25.024-37.248,37.304-43.208,43.208
			l-52.784-52.776L378.596,52.762z M252.044,16.274c38.408,1.352,75.496,12.312,108.2,32.216l-12.2,12.2L329.7,42.346
			l-11.312,11.312l18.344,18.344l-18.344,18.344c-3.128,3.128-3.128,8.184,0,11.312l10.344,10.344l-60.176,60.176
			c-5.32-2.248-10.848-3.984-16.512-5.248V16.274z M236.044,16.202v148.464c-17.896-0.896-35.448,3.336-50.864,11.8
			C126.14,161.13,86.252,124.21,84.236,83.242C123.172,43.562,176.7,18.306,236.044,16.202z M70.252,98.874
			c9.096,38.76,45.824,72.384,98.104,89.344c-1.664,1.448-3.352,2.856-4.92,4.424c-5.288,5.288-9.944,11.176-13.84,17.504
			c-5.184,8.424-11.224,15.736-17.872,21.856H20.244C22.02,181.65,40.46,135.49,70.252,98.874z M106.452,248.002
			c-3.232,1.264-6.512,2.384-9.864,3.16c-9.52,2.208-18.624,5.52-27.168,9.856c-14.248,7.232-26.968,17.32-37.568,29.904
			c-1.552,1.848-3.056,3.768-4.512,5.76c-4.176-15.912-6.456-32.208-7.04-48.68H106.452z M236.044,463.81
			c-11.736-0.424-23.44-1.72-35-3.976c2.688-2.24,5.24-4.568,7.648-6.984c10.072-10.064,18.176-21.784,24.064-34.552
			c1.192-2.576,2.28-5.2,3.288-7.864V463.81z M224.948,392.242c-0.552,2.328-1.184,4.632-1.896,6.912
			c-0.08,0.248-0.176,0.488-0.256,0.736c-0.752,2.352-1.6,4.672-2.52,6.96c-3.976,9.888-9.488,19.112-16.312,27.368
			c-2.088,2.52-4.248,4.992-6.584,7.32c-2.8,2.8-5.832,5.472-9.072,8c-0.048,0.04-0.104,0.072-0.152,0.112
			c-3.2,2.488-6.6,4.84-10.184,7.032c-16.904,10.328-36.392,15.656-56.712,15.288c-28.744-0.712-55.232-12.872-74.608-34.256
			c-29.6-32.68-34.672-80.12-14.936-117.872c0.048-0.088,0.128-0.152,0.176-0.248c3.552-6.8,7.656-12.976,12.192-18.36
			c14.712-17.472,34.112-29.4,56.104-34.488c25.072-5.8,47.456-22.912,63.032-48.216c3.24-5.264,7.12-10.168,11.528-14.576
			c1.944-1.944,3.976-3.76,6.088-5.48c0.84-0.68,1.736-1.272,2.6-1.92c1.296-0.968,2.584-1.96,3.928-2.848
			c1.136-0.752,2.328-1.408,3.504-2.096c1.128-0.664,2.24-1.352,3.4-1.96c1.336-0.696,2.72-1.312,4.096-1.928
			c1.048-0.472,2.088-0.968,3.152-1.4c1.464-0.592,2.968-1.096,4.464-1.592c1.032-0.344,2.064-0.704,3.112-1.008
			c1.52-0.44,3.064-0.808,4.616-1.16c1.088-0.248,2.168-0.488,3.264-0.688c1.512-0.272,3.032-0.488,4.56-0.68
			c1.208-0.152,2.408-0.28,3.624-0.368c1.416-0.112,2.84-0.176,4.264-0.208c2.128-0.048,4.248-0.096,6.392,0.032
			c23.04,1.288,43.736,12.032,58.272,30.248c21.856,27.384,23.16,66.456,3.168,95.008c-1.76,2.504-3.624,4.896-5.592,7.152
			c-5.92,6.776-12.784,12.416-20.504,16.832C248.06,343.122,231.212,365.85,224.948,392.242z M252.044,463.802V369.49
			c6.928-10.528,16.112-19.432,27.064-25.704c9.264-5.304,17.488-12.056,24.56-20.152c2.36-2.696,4.592-5.544,6.688-8.544
			c1.816-2.592,3.432-5.272,4.96-8c52.592,17.16,86.688,51.624,88.544,89.664C364.924,436.434,311.396,461.698,252.044,463.802z
			 M321.932,292.418c5.016-14.288,6.536-29.536,4.576-44.416h141.336c-1.776,50.352-20.224,96.52-50.016,133.136
			C408.964,342.882,373.476,309.698,321.932,292.418z"/>
	</g>
</g>
<g>
	<g>
		<rect x="112.037" y="332.405" transform="matrix(0.7071 -0.7071 0.7071 0.7071 -227.8862 193.8357)" width="16" height="79.191"/>
	</g>
</g>
<g>
	<g>
		<path d="M172.044,272.002c-26.472,0-48,21.528-48,48s21.528,48,48,48s48-21.528,48-48S198.516,272.002,172.044,272.002z
			 M172.044,352.002c-17.648,0-32-14.352-32-32s14.352-32,32-32s32,14.352,32,32S189.692,352.002,172.044,352.002z"/>
	</g>
</g>
<g>
	<g>
		<rect x="360.733" y="80.006" transform="matrix(0.7071 -0.7071 0.7071 0.7071 46.7398 288.8519)" width="22.624" height="16"/>
	</g>
</g>
<g>
	<g>
		<rect x="392.733" y="48.04" transform="matrix(0.7071 -0.7071 0.7071 0.7071 78.716 302.1165)" width="22.624" height="16"/>
	</g>
</g>
<g>
	<g>
		<rect x="384.73" y="104.006" transform="matrix(0.7071 -0.7071 0.7071 0.7071 36.7977 312.8496)" width="22.624" height="16"/>
	</g>
</g>
<g>
	<g>
		<rect x="416.73" y="72.04" transform="matrix(0.7071 -0.7071 0.7071 0.7071 68.774 326.1143)" width="22.624" height="16"/>
	</g>
</g>
<g>
	<g>
		<rect x="468.044" y="464.002" width="16" height="16"/>
	</g>
</g>
<g>
	<g>
		<rect x="436.044" y="464.002" width="16" height="16"/>
	</g>
</g>
<g>
	<g>
		<rect x="404.044" y="464.002" width="16" height="16"/>
	</g>
</g>
<g>
</g>
<g>
</g>
<g>
</g>
<g>
</g>
<g>
</g>
<g>
</g>
<g>
</g>
<g>
</g>
<g>
</g>
<g>
</g>
<g>
</g>
<g>
</g>
<g>
</g>
<g>
</g>
<g>
</g>
</svg>
