<?xml version="1.0" encoding="iso-8859-1"?>
<!-- Generator: Adobe Illustrator 19.0.0, SVG Export Plug-In . SVG Version: 6.00 Build 0)  -->
<svg version="1.1" id="Layer_1" xmlns="http://www.w3.org/2000/svg" xmlns:xlink="http://www.w3.org/1999/xlink" x="0px" y="0px"
	 viewBox="0 0 480 480" style="enable-background:new 0 0 480 480;" xml:space="preserve">
<g>
	<g>
		<path d="M376,384v28.688l-30.144-30.144C360.2,356.368,368,328.12,368,299.184V296h16v-16h-16v-72c0-4.416-3.576-8-8-8h-56v-48
			c0-4.416-3.576-8-8-8h-24v-24C272,53.832,218.168,0,152,0S32,53.832,32,120v24H8c-4.424,0-8,3.584-8,8v56v40v40v40v40v24
			c0,22.056,17.944,40,40,40h131.72c17.976,17.84,39.624,33.776,64.52,47.056c1.176,0.632,2.464,0.944,3.76,0.944
			s2.584-0.312,3.768-0.944c40.376-21.536,72.208-50.04,93.584-82.4L364.688,424H336v16h48c4.424,0,8-3.584,8-8v-48H376z M48,120
			C48,62.656,94.656,16,152,16s104,46.656,104,104v24h-24v-24c0-44.112-35.888-80-80-80s-80,35.888-80,80v24H48V120z M216,120v24H88
			v-24c0-35.288,28.712-64,64-64C187.288,56,216,84.712,216,120z M16,216h48v24H16V216z M16,256h48v24H16V256z M16,296h48v24H16V296
			z M16,336h48v24H16V336z M40,416c-13.232,0-24-10.768-24-24v-16h56c4.424,0,8-3.584,8-8v-40v-40v-40v-40c0-4.416-3.576-8-8-8H16
			v-40h272v40H120c-4.424,0-8,3.584-8,8v91.184c0,41.776,16.12,82.152,45.088,116.816H40z M240,462.896
			c-70.216-38.784-112-99.72-112-163.712V216h224v64h-16v-40c0-4.416-3.576-8-8-8H152c-4.424,0-8,3.584-8,8v43.76
			c0,64.76,35.32,124.256,92.168,155.264C237.36,439.672,238.68,440,240,440s2.64-0.328,3.832-0.976
			c29.208-15.928,52.68-39.416,68.648-67.232l13.296,13.296C306.52,415.36,277.336,442.28,240,462.896z M240,280
			c-3.232,0-6.16,1.952-7.392,4.936c-1.24,2.992-0.552,6.432,1.736,8.72l66.36,66.36c-13.856,25.72-34.608,47.64-60.704,62.808
			c-49.464-28.744-80-81.624-80-139.056V248h160v32H240z M319.496,296c-1.288,16.936-5.208,33.344-11.488,48.688L259.312,296
			H319.496z M334.064,370.744l-13.936-13.936c8.608-18.968,13.976-39.496,15.448-60.816H352v3.192
			C352,323.864,345.728,348.072,334.064,370.744z"/>
	</g>
</g>
<g>
	<g>
		<rect x="400" y="280" width="16" height="16"/>
	</g>
</g>
<g>
	<g>
		<rect x="432" y="280" width="16" height="16"/>
	</g>
</g>
<g>
	<g>
		<rect x="464" y="280" width="16" height="16"/>
	</g>
</g>
<g>
	<g>
		<rect x="432" y="64" width="16" height="16"/>
	</g>
</g>
<g>
	<g>
		<rect x="464" y="64" width="16" height="16"/>
	</g>
</g>
<g>
	<g>
		<path d="M464,144h-92.688l18.344-18.344l-11.312-11.312l-32,32c-3.128,3.128-3.128,8.184,0,11.312l32,32l11.312-11.312
			L371.312,160H464V144z"/>
	</g>
</g>
<g>
	<g>
		<path d="M480,216h-68.688l18.344-18.344l-11.312-11.312l-32,32c-3.128,3.128-3.128,8.184,0,11.312l32,32l11.312-11.312
			L411.312,232H480V216z"/>
	</g>
</g>
<g>
	<g>
		<path d="M416,64h-92.688l18.344-18.344l-11.312-11.312l-32,32c-3.128,3.128-3.128,8.184,0,11.312l32,32l11.312-11.312L323.312,80
			H416V64z"/>
	</g>
</g>
<g>
</g>
<g>
</g>
<g>
</g>
<g>
</g>
<g>
</g>
<g>
</g>
<g>
</g>
<g>
</g>
<g>
</g>
<g>
</g>
<g>
</g>
<g>
</g>
<g>
</g>
<g>
</g>
<g>
</g>
</svg>
