<?xml version="1.0" encoding="iso-8859-1"?>
<!-- Generator: Adobe Illustrator 19.0.0, SVG Export Plug-In . SVG Version: 6.00 Build 0)  -->
<svg version="1.1" id="Layer_1" xmlns="http://www.w3.org/2000/svg" xmlns:xlink="http://www.w3.org/1999/xlink" x="0px" y="0px"
	 viewBox="0 0 480 480" style="enable-background:new 0 0 480 480;" xml:space="preserve">
<g>
	<g>
		<path d="M464,292.392V120v-8V64c0-22.056-17.944-40-40-40H194.24l-2.48-9.944C190.864,10.496,187.672,8,184,8H72
			c-3.672,0-6.864,2.496-7.76,6.056L61.76,24H40C17.944,24,0,41.944,0,64v48v16v264c0,22.056,17.944,40,40,40h230.808
			c21.984,24.488,53.768,40,89.192,40c66.168,0,120-53.832,120-120C480,330.296,474.12,309.976,464,292.392z M424,40
			c13.232,0,24,10.768,24,24v16.208C441.296,75.128,433.04,72,424,72H206.24l-8-32H424z M78.248,24h99.504l12,48H66.248L78.248,24z
			 M16,64c0-13.232,10.768-24,24-24h17.76l-8,32H40c-9.04,0-17.296,3.128-24,8.208V64z M40,416c-13.232,0-24-10.768-24-24V128v-16
			c0-13.232,10.768-24,24-24h16h144h224c13.232,0,24,10.768,24,24v8v150.688C426.064,246.968,394.784,232,360,232
			c-31.384,0-59.904,12.208-81.312,32H184c-4.424,0-8,3.584-8,8v80c0,4.416,3.576,8,8,8h56.408c0.36,5.424,0.952,10.792,2.016,16
			H192v16h55c3.008,8.48,6.92,16.512,11.664,24H40z M240.4,344H192v-64h72.224C250.6,298.08,241.992,320.064,240.4,344z
			 M275.648,291.408c11.496,6.472,23.56,11.568,35.984,15.192c-3.816,11.592-6.456,24.192-7.272,37.4h-47.952
			C257.904,324.456,264.808,306.448,275.648,291.408z M286.064,278.968c14.776-14.96,34.056-25.4,55.6-29.248
			c-7.408,10-16.72,24.488-24.256,41.896C306.624,288.576,296.104,284.376,286.064,278.968z M360,252.272
			c6.648,8.232,17.744,23.504,26.576,42.888c-17.584,3.024-35.568,3.024-53.152,0C342.256,275.776,353.36,260.504,360,252.272z
			 M320.296,344c0.84-11.84,3.472-23.168,7.072-33.672c10.776,2.064,21.696,3.184,32.632,3.184c10.936,0,21.856-1.12,32.632-3.184
			c3.592,10.504,6.232,21.832,7.072,33.672H320.296z M399.696,360c-0.88,12.424-3.752,24.264-7.616,35.2
			c-21.192-3.992-42.968-3.992-64.168,0c-3.872-10.936-6.736-22.784-7.616-35.2H399.696z M378.336,249.72
			c21.544,3.856,40.824,14.296,55.6,29.248c-10.04,5.4-20.56,9.6-31.344,12.648C395.056,274.208,385.744,259.72,378.336,249.72z
			 M256.4,360h47.968c0.848,13.776,3.72,26.856,7.792,38.856c-12.304,3.544-24.264,8.536-35.672,14.864
			C265.168,398.448,257.936,380.032,256.4,360z M287.16,426.12c9.912-5.232,20.264-9.32,30.88-12.264
			c7.416,16.752,16.424,30.712,23.624,40.432C320.648,450.528,301.792,440.496,287.16,426.12z M334.112,410.344
			c17.136-2.864,34.64-2.864,51.776,0c-8.712,18.664-19.416,33.368-25.888,41.384C353.528,443.712,342.832,429.008,334.112,410.344z
			 M378.336,454.28c7.2-9.72,16.2-23.672,23.624-40.424c10.616,2.944,20.968,7.032,30.88,12.256
			C418.208,440.488,399.36,450.52,378.336,454.28z M443.504,413.72c-11.4-6.328-23.36-11.32-35.664-14.864
			c4.08-12,6.944-25.08,7.792-38.856h47.96C462.056,380.04,454.824,398.456,443.504,413.72z M415.632,344
			c-0.816-13.216-3.448-25.808-7.264-37.4c12.424-3.616,24.488-8.72,35.984-15.192c10.84,15.048,17.744,33.056,19.24,52.592H415.632
			z"/>
	</g>
</g>
<g>
	<g>
		<path d="M144,112H48c-4.424,0-8,3.584-8,8v80c0,4.416,3.576,8,8,8h96c4.424,0,8-3.584,8-8v-80C152,115.584,148.424,112,144,112z
			 M136,192H56v-64h80V192z"/>
	</g>
</g>
<g>
	<g>
		<path d="M280,112h-96c-4.424,0-8,3.584-8,8v80c0,4.416,3.576,8,8,8h96c4.424,0,8-3.584,8-8v-80C288,115.584,284.424,112,280,112z
			 M272,192h-80v-64h80V192z"/>
	</g>
</g>
<g>
	<g>
		<path d="M416,112h-96c-4.424,0-8,3.584-8,8v80c0,4.416,3.576,8,8,8h96c4.424,0,8-3.584,8-8v-80C424,115.584,420.424,112,416,112z
			 M408,192h-80v-64h80V192z"/>
	</g>
</g>
<g>
	<g>
		<path d="M144,264H48c-4.424,0-8,3.584-8,8v80c0,4.416,3.576,8,8,8h96c4.424,0,8-3.584,8-8v-80C152,267.584,148.424,264,144,264z
			 M136,344H56v-64h80V344z"/>
	</g>
</g>
<g>
	<g>
		<rect x="56" y="224" width="80" height="16"/>
	</g>
</g>
<g>
	<g>
		<rect x="56" y="376" width="80" height="16"/>
	</g>
</g>
<g>
	<g>
		<rect x="192" y="224" width="80" height="16"/>
	</g>
</g>
<g>
	<g>
		<rect x="88" y="40" width="16" height="16"/>
	</g>
</g>
<g>
	<g>
		<rect x="120" y="40" width="16" height="16"/>
	</g>
</g>
<g>
	<g>
		<rect x="152" y="40" width="16" height="16"/>
	</g>
</g>
<g>
</g>
<g>
</g>
<g>
</g>
<g>
</g>
<g>
</g>
<g>
</g>
<g>
</g>
<g>
</g>
<g>
</g>
<g>
</g>
<g>
</g>
<g>
</g>
<g>
</g>
<g>
</g>
<g>
</g>
</svg>
