<?xml version="1.0" encoding="iso-8859-1"?>
<!-- Generator: Adobe Illustrator 19.0.0, SVG Export Plug-In . SVG Version: 6.00 Build 0)  -->
<svg version="1.1" id="Layer_1" xmlns="http://www.w3.org/2000/svg" xmlns:xlink="http://www.w3.org/1999/xlink" x="0px" y="0px"
	 viewBox="0 0 493.656 493.656" style="enable-background:new 0 0 493.656 493.656;" xml:space="preserve">
<g>
	<g>
		<path d="M373.656,12c-38.984,0-73.344,20.048-93.408,50.344l-0.12-0.128l-184,176c-1.552,1.488-2.448,3.536-2.472,5.696
			c-0.024,2.152,0.824,4.216,2.344,5.744L106.344,260L88,278.344c-3.128,3.128-3.128,8.184,0,11.312L98.344,300L80,318.344
			c-3.128,3.128-3.128,8.184,0,11.312L90.344,340L72,358.344c-3.128,3.128-3.128,8.184,0,11.312l2.336,2.336L21.568,424.6
			l-10.256-10.256L0,425.656l13.992,13.992c0.4,0.856,0.912,1.672,1.6,2.344l32.472,31.728L64,489.656l11.312-11.312L64.968,468
			l52.688-52.688l2.344,2.344c1.56,1.56,3.608,2.344,5.656,2.344c2.048,0,4.096-0.784,5.656-2.344l18.344-18.344L160,409.656
			c3.128,3.128,8.184,3.128,11.312,0l18.344-18.344L200,401.656c3.128,3.128,8.184,3.128,11.312,0l18.344-18.344L240,393.656
			c3.128,3.128,8.184,3.128,11.312,0l2.384-2.384l-47.112,88.984l14.144,7.488l56.928-107.536V484h16V380.208l56.928,107.536
			l14.144-7.488l-69.24-130.776L418.32,226.648C457.896,209.36,485.656,169.88,485.656,124C485.656,62.24,435.416,12,373.656,12z
			 M373.656,28c47.144,0,86.368,34.184,94.408,79.048C449.232,94.608,414.296,76,373.656,76s-75.576,18.608-94.408,31.048
			C287.288,62.184,326.512,28,373.656,28z M464.44,124.008C449.232,134.76,414.088,156,373.656,156
			c-40.304,0-75.544-21.264-90.784-32.008C298.08,113.24,333.224,92,373.656,92C413.96,92,449.2,113.264,464.44,124.008z
			 M53.656,456.688L32.88,435.912l52.768-52.608L106.344,404L53.656,456.688z M125.656,400.688l-2.344-2.344l-32-32L88.968,364
			l12.688-12.688L138.344,388L125.656,400.688z M165.656,392.688l-10.344-10.344l-48-48L96.968,324l12.688-12.688L178.344,380
			L165.656,392.688z M205.656,384.688l-10.344-10.344l-80-80L104.968,284l12.688-12.688L218.344,372L205.656,384.688z
			 M245.656,376.688l-10.344-10.344l-112-112l-10.216-10.216L264.488,99.32c-1.8,7.952-2.832,16.192-2.832,24.68
			c0,61.76,50.24,112,112,112c4.608,0,9.128-0.368,13.6-0.912L245.656,376.688z M373.656,220c-47.144,0-86.368-34.184-94.408-79.048
			C298.08,153.392,333.016,172,373.656,172s75.576-18.608,94.408-31.048C460.024,185.816,420.8,220,373.656,220z"/>
	</g>
</g>
<g>
	<g>
		<path d="M373.656,92c-17.648,0-32,14.352-32,32s14.352,32,32,32s32-14.352,32-32S391.304,92,373.656,92z M373.656,140
			c-8.824,0-16-7.176-16-16c0-8.824,7.176-16,16-16c8.824,0,16,7.176,16,16S382.48,140,373.656,140z"/>
	</g>
</g>
<g>
	<g>
		<rect x="256.403" y="276.016" transform="matrix(0.7071 -0.7071 0.7071 0.7071 -112.4759 296.4914)" width="90.511" height="16"/>
	</g>
</g>
<g>
	<g>
		<rect x="234.364" y="332.002" transform="matrix(0.7071 -0.7071 0.7071 0.7071 -168.4612 273.3035)" width="22.624" height="16"/>
	</g>
</g>
<g>
	<g>
		<path d="M229.656,4h-16c0,13.232-10.768,24-24,24v16c13.232,0,24,10.768,24,24h16c0-13.232,10.768-24,24-24V28
			C240.424,28,229.656,17.232,229.656,4z M221.656,44.248c-2.336-3.144-5.104-5.912-8.248-8.248
			c3.144-2.336,5.912-5.104,8.248-8.248c2.336,3.144,5.104,5.912,8.248,8.248C226.76,38.336,223.992,41.104,221.656,44.248z"/>
	</g>
</g>
<g>
	<g>
		<path d="M157.656,36h-16c0,13.232-10.768,24-24,24v16c13.232,0,24,10.768,24,24h16c0-13.232,10.768-24,24-24V60
			C168.424,60,157.656,49.232,157.656,36z M149.656,76.248c-2.336-3.144-5.104-5.912-8.248-8.248
			c3.144-2.336,5.912-5.104,8.248-8.248c2.336,3.144,5.104,5.912,8.248,8.248C154.76,70.336,151.992,73.104,149.656,76.248z"/>
	</g>
</g>
<g>
	<g>
		<rect x="413.656" y="252" width="16" height="16"/>
	</g>
</g>
<g>
	<g>
		<rect x="445.656" y="252" width="16" height="16"/>
	</g>
</g>
<g>
	<g>
		<rect x="477.656" y="252" width="16" height="16"/>
	</g>
</g>
<g>
</g>
<g>
</g>
<g>
</g>
<g>
</g>
<g>
</g>
<g>
</g>
<g>
</g>
<g>
</g>
<g>
</g>
<g>
</g>
<g>
</g>
<g>
</g>
<g>
</g>
<g>
</g>
<g>
</g>
</svg>
