<?xml version="1.0" encoding="iso-8859-1"?>
<!-- Generator: Adobe Illustrator 19.0.0, SVG Export Plug-In . SVG Version: 6.00 Build 0)  -->
<svg version="1.1" id="Layer_1" xmlns="http://www.w3.org/2000/svg" xmlns:xlink="http://www.w3.org/1999/xlink" x="0px" y="0px"
	 viewBox="0 0 480 480" style="enable-background:new 0 0 480 480;" xml:space="preserve">
<g>
	<g>
		<path d="M472,216h-17.392C443.536,116.608,363.4,36.464,264,25.384V8c0-4.416-3.576-8-8-8h-32c-4.424,0-8,3.584-8,8v17.384
			C116.6,36.464,36.464,116.608,25.392,216H8c-4.424,0-8,3.584-8,8v32c0,4.416,3.576,8,8,8h17.392
			C36.464,363.392,116.6,443.536,216,454.616V472c0,4.416,3.576,8,8,8h32c4.424,0,8-3.584,8-8v-17.384
			c99.4-11.08,179.536-91.224,190.608-190.616H472c4.424,0,8-3.584,8-8v-32C480,219.584,476.424,216,472,216z M264,41.704
			C354.568,52.664,427.344,125.432,438.296,216h-16.064C411.464,133.432,346.568,68.536,264,57.776V41.704z M264,73.736
			c73.752,10.52,131.752,68.52,142.256,142.264h-48.68c-9.56-46.952-46.624-84.016-93.576-93.584V73.736z M357.584,264h48.68
			C395.752,337.744,337.752,395.744,264,406.264v-48.68C310.952,348.016,348.016,310.952,357.584,264z M343.592,232H295.36
			c-3.528-24.472-22.888-43.832-47.36-47.36v-48.232C298.96,140.312,339.688,181.04,343.592,232z M248,232v-31.192
			C263.648,204,276,216.352,279.192,232H248z M279.192,248C276,263.648,263.648,276,248,279.192V248H279.192z M232,64.76V32.672V16
			h16v16.672V64.76V120h-16V64.76z M232,136.408v48.232c-24.472,3.528-43.832,22.888-47.36,47.36h-48.232
			C140.312,181.04,181.04,140.312,232,136.408z M200.808,232C204,216.352,216.352,204,232,200.808V232H200.808z M232,248v31.192
			C216.352,276,204,263.648,200.808,248H232z M122.416,216h-48.68C84.248,142.256,142.248,84.256,216,73.736v48.68
			C169.048,131.984,131.984,169.048,122.416,216z M216,41.704v16.064C133.432,68.536,68.536,133.432,57.776,216H41.704
			C52.656,125.432,125.432,52.664,216,41.704z M16,248v-16h16.672H64.76H120v16H64.76H32.672H16z M216,438.288
			C125.432,427.336,52.656,354.568,41.704,264h16.064C68.536,346.568,133.432,411.464,216,422.224V438.288z M216,406.264
			C142.248,395.744,84.248,337.744,73.744,264h48.68c9.56,46.952,46.624,84.016,93.576,93.584V406.264z M136.408,248h48.232
			c3.528,24.472,22.888,43.832,47.36,47.36v48.232C181.04,339.688,140.312,298.96,136.408,248z M248,415.24v32.088V464h-16v-16.672
			V415.24V360h16V415.24z M248,343.592V295.36c24.472-3.528,43.832-22.888,47.36-47.36h48.232
			C339.688,298.96,298.96,339.688,248,343.592z M264,438.296v-16.064C346.568,411.464,411.464,346.568,422.224,264h16.064
			C427.344,354.568,354.568,427.336,264,438.296z M464,248h-16.672H415.24H360v-16h55.24h32.088H464V248z"/>
	</g>
</g>
<g>
</g>
<g>
</g>
<g>
</g>
<g>
</g>
<g>
</g>
<g>
</g>
<g>
</g>
<g>
</g>
<g>
</g>
<g>
</g>
<g>
</g>
<g>
</g>
<g>
</g>
<g>
</g>
<g>
</g>
</svg>
